<svg width="64" height="64" xmlns="http://www.w3.org/2000/svg">
  <path d="M0 0h64v64H0z" fill="#fffbf9" />
  <path d="M18.8 8a4.8 4.8 0 0 1 4.8 4.8c0 6.842 4.332 10.307 11.223 15.318l.458.333C41.553 33.004 50 39.138 50 51.2a4.8 4.8 0 1 1-9.6 0c0-6.842-4.332-10.307-11.223-15.318l-.455-.33-.003-.003C22.447 30.996 14 24.862 14 12.8A4.8 4.8 0 0 1 18.8 8ZM18.8 41.6a4.8 4.8 0 0 1 4.8 4.8v4.8a4.8 4.8 0 1 1-9.6 0v-4.8a4.8 4.8 0 0 1 4.8-4.8ZM50 12.8a4.8 4.8 0 1 0-9.6 0v4.8a4.8 4.8 0 1 0 9.6 0v-4.8Z" fill="#cf493f" />
</svg>
