<svg viewBox="0 0 128 24">
  <path
    d="m4.053 9.627 7.588 9.004h2.431V5.369h-2.636v9.102L3.808 5.369H1.416v13.262h2.637V9.627Zm20.576 6.289a7.429 7.429 0 0 1-3.174.713c-1.543 0-2.715-.625-2.969-1.934h6.778c.615-3.466-1.573-5.634-4.453-5.634-2.784 0-4.815 2.011-4.815 4.882 0 2.92 2.129 4.883 5.45 4.883 1.366 0 2.626-.361 3.534-.879l-.351-2.031Zm-6.104-2.9c.108-1.065 1.006-1.846 2.344-1.846 1.29 0 2.08.8 2.149 1.846h-4.493Zm16.807 2.9a7.429 7.429 0 0 1-3.174.713c-1.543 0-2.715-.625-2.969-1.934h6.778c.615-3.466-1.572-5.634-4.453-5.634-2.784 0-4.815 2.011-4.815 4.882 0 2.92 2.13 4.883 5.45 4.883 1.367 0 2.626-.361 3.535-.879l-.352-2.031Zm-6.104-2.9c.108-1.065 1.006-1.846 2.344-1.846 1.29 0 2.08.8 2.149 1.846h-4.492Zm14.434-1.68v-2.08h-2.715V6.248h-2.431v3.008h-1.592v2.08h1.582v4.219c0 2.207 1.387 3.271 3.447 3.271.762 0 1.69-.146 2.266-.37l-.235-2.081a6.311 6.311 0 0 1-1.591.225c-.84 0-1.387-.43-1.387-1.407v-3.857h2.656Zm4.473-6.455h-2.5v13.75h2.5V4.88Zm6.63 11.201-2.45-6.826H49.54l3.877 9.385c-.293 1.181-1.035 1.914-2.08 1.914-.42 0-.86-.108-1.182-.244l-.312 2.011c.41.205 1.035.41 1.787.41 2.012 0 3.164-1.025 3.916-2.822L59.97 9.256h-2.783l-2.422 6.826Zm11.26-10.713v13.262h5.713c4.229 0 6.7-2.53 6.7-6.64 0-4.083-2.422-6.622-6.7-6.622h-5.713Zm5.43 10.986h-2.793v-8.71h2.793c2.969 0 4.277 1.572 4.277 4.345 0 2.754-1.279 4.365-4.277 4.365Zm17.06-.439a7.429 7.429 0 0 1-3.173.713c-1.543 0-2.715-.625-2.969-1.934h6.777c.616-3.466-1.572-5.634-4.453-5.634-2.783 0-4.814 2.011-4.814 4.882 0 2.92 2.129 4.883 5.449 4.883 1.367 0 2.627-.361 3.535-.879l-.351-2.031Zm-6.103-2.9c.107-1.065 1.006-1.846 2.344-1.846 1.289 0 2.08.8 2.148 1.846h-4.492Zm12.129-.108c-1.123-.205-1.533-.44-1.533-.898 0-.557.596-.85 1.826-.85.898 0 2.148.235 2.832.527l.215-2.04c-.84-.372-2.002-.586-3.174-.586-2.49 0-4.111 1.2-4.111 2.949 0 1.553.879 2.47 2.685 2.783l1.123.215c1.094.195 1.494.44 1.494.937 0 .557-.517.81-1.738.81-.957 0-2.226-.263-3.154-.653l-.264 2.05c.85.42 2.207.674 3.614.674 2.402 0 3.964-1.045 3.964-2.93 0-1.62-.927-2.46-2.783-2.802l-.996-.186Zm8.076 5.723V9.256h-2.51v9.375h2.51Zm-1.26-10.947c.85 0 1.446-.586 1.446-1.436 0-.86-.596-1.445-1.446-1.445-.849 0-1.435.595-1.435 1.445 0 .85.586 1.436 1.435 1.436Zm7.666 11.142c1.377 0 2.481-.498 3.047-1.25v.664c0 1.563-1.543 2.266-3.115 2.266-1.201 0-2.568-.322-3.281-.703l-.293 2.148c.82.42 2.207.781 3.74.781 2.92 0 5.449-1.464 5.449-4.433V9.256h-2.402l-.049 1.133c-.625-.782-1.592-1.328-3.096-1.328-2.656 0-4.541 2.021-4.541 4.873 0 2.832 1.885 4.892 4.541 4.892Zm3.067-4.902c0 1.484-1.074 2.656-2.549 2.656-1.494 0-2.539-1.172-2.539-2.656 0-1.514 1.045-2.617 2.539-2.617 1.475 0 2.549 1.123 2.549 2.617Zm10.176-4.863c-1.397 0-2.403.625-2.891 1.279l-.049-1.084h-2.383v9.375h2.5v-5.244c0-1.3.977-2.002 2.08-2.002 1.094 0 1.934.703 1.934 2.002v5.244h2.51v-5.889c0-2.256-1.533-3.681-3.701-3.681Z"
  />
</svg>
