<svg viewBox="0 0 622 96">
  <path
    d="M26 8a8 8 0 0 1 8 8c0 11.403 7.22 17.178 18.705 25.53l.764.555C63.92 49.674 78 59.897 78 80a8 8 0 1 1-16 0c0-11.403-7.22-17.178-18.705-25.53l-.759-.55-.005-.005C32.08 46.326 18 36.103 18 16a8 8 0 0 1 8-8ZM26 64a8 8 0 0 1 8 8v8a8 8 0 1 1-16 0v-8a8 8 0 0 1 8-8ZM78 16a8 8 0 1 0-16 0v8a8 8 0 1 0 16 0v-8ZM128.211 38.508l30.351 36.015h9.727V21.477h-10.547v36.406l-30.508-36.406h-9.57v53.046h10.547V38.508Zm81.105 25.156a29.72 29.72 0 0 1-12.696 2.852c-6.172 0-10.859-2.5-11.875-7.735h27.11c2.461-13.867-6.289-22.539-17.813-22.539-11.133 0-19.258 8.047-19.258 19.531 0 11.68 8.516 19.532 21.797 19.532 5.469 0 10.508-1.446 14.141-3.516l-1.406-8.125Zm-24.414-11.602c.429-4.257 4.023-7.382 9.375-7.382 5.156 0 8.32 3.203 8.593 7.383h-17.968Zm66.026 11.602a29.718 29.718 0 0 1-12.695 2.852c-6.172 0-10.86-2.5-11.875-7.735h27.109c2.461-13.867-6.289-22.539-17.812-22.539-11.133 0-19.258 8.047-19.258 19.531 0 11.68 8.515 19.532 21.797 19.532 5.468 0 10.508-1.446 14.14-3.516l-1.406-8.125Zm-24.414-11.602c.43-4.257 4.023-7.382 9.375-7.382 5.156 0 8.32 3.203 8.594 7.383h-17.969Zm56.534-6.718v-8.32h-10.859V24.991h-9.727v12.031h-6.367v8.32h6.328V62.22c0 8.828 5.547 13.086 13.789 13.086 3.047 0 6.758-.586 9.063-1.485l-.938-8.32c-2.109.586-4.492.898-6.367.898-3.359 0-5.547-1.718-5.547-5.625v-15.43h10.625Zm16.691-25.82h-10v55h10v-55Zm25.323 44.804-9.804-27.305h-11.094l15.508 37.54c-1.172 4.726-4.141 7.656-8.32 7.656-1.68 0-3.438-.43-4.727-.977l-1.25 8.047c1.641.82 4.141 1.64 7.148 1.64 8.047 0 12.657-4.1 15.665-11.288l17.695-42.618H334.75l-9.688 27.305Zm42.64-42.851v53.046h22.851c16.914 0 26.797-10.117 26.797-26.562 0-16.328-9.687-26.484-26.797-26.484h-22.851Zm21.718 43.945h-11.172V30.578h11.172c11.875 0 17.11 6.29 17.11 17.383 0 11.016-5.117 17.46-17.11 17.46Zm67.042-1.758a29.712 29.712 0 0 1-12.695 2.852c-6.172 0-10.859-2.5-11.875-7.735h27.11c2.46-13.867-6.29-22.539-17.813-22.539-11.133 0-19.258 8.047-19.258 19.531 0 11.68 8.516 19.532 21.797 19.532 5.469 0 10.508-1.446 14.141-3.516l-1.407-8.125Zm-24.414-11.602c.43-4.257 4.024-7.382 9.375-7.382 5.157 0 8.321 3.203 8.594 7.383h-17.969Zm47.316-.43c-4.492-.82-6.133-1.757-6.133-3.593 0-2.227 2.383-3.398 7.305-3.398 3.594 0 8.594.937 11.328 2.109l.859-8.164c-3.359-1.484-8.007-2.344-12.695-2.344-9.961 0-16.445 4.805-16.445 11.797 0 6.211 3.515 9.883 10.742 11.133l4.492.86c4.375.78 5.977 1.757 5.977 3.75 0 2.226-2.071 3.241-6.953 3.241-3.828 0-8.907-1.054-12.618-2.617l-1.054 8.203c3.398 1.68 8.828 2.696 14.453 2.696 9.609 0 15.859-4.18 15.859-11.72 0-6.483-3.711-9.843-11.133-11.21l-3.984-.742Zm31.105 22.891v-37.5H500.43v37.5h10.039Zm-5.039-43.789c3.398 0 5.781-2.343 5.781-5.742 0-3.437-2.383-5.781-5.781-5.781-3.399 0-5.742 2.383-5.742 5.781 0 3.399 2.343 5.742 5.742 5.742Zm29.464 44.57c5.508 0 9.922-1.992 12.187-5v2.657c0 6.25-6.172 9.062-12.461 9.062-4.804 0-10.273-1.289-13.125-2.812l-1.172 8.594c3.282 1.68 8.829 3.125 14.961 3.125 11.68 0 21.797-5.86 21.797-17.735V37.023h-9.609l-.195 4.532c-2.5-3.125-6.368-5.313-12.383-5.313-10.625 0-18.164 8.086-18.164 19.492 0 11.328 7.539 19.57 18.164 19.57Zm12.265-19.609c0 5.938-4.297 10.625-10.195 10.625-5.977 0-10.156-4.687-10.156-10.625 0-6.054 4.179-10.468 10.156-10.468 5.898 0 10.195 4.492 10.195 10.468Zm39.504-19.453c-5.586 0-9.61 2.5-11.563 5.117l-.195-4.336h-9.532v37.5h10V53.547c0-5.195 3.907-8.008 8.321-8.008 4.375 0 7.734 2.813 7.734 8.008v20.976h10.039V50.97c0-9.024-6.133-14.727-14.804-14.727Z"
  />
</svg>
