<svg viewBox="0 0 24 24">
  <path
    d="m4.707 3.293 16 16a1 1 0 0 1-1.414 1.414l-1.973-1.973a7.966 7.966 0 0 1-2.035.935 1 1 0 0 1-.57-1.917c.401-.12.785-.28 1.146-.476L12 13.414V19a1 1 0 0 1-1.707.707L6.586 16H4a1 1 0 0 1-1-1V9a1 1 0 0 1 1-1h2.586L3.293 4.707a1 1 0 0 1 1.414-1.414ZM12 7.757 9.414 5.172l.879-.88A1 1 0 0 1 12 5v2.757ZM21 12c0 1.375-.347 2.67-.958 3.8l-1.499-1.5a6.003 6.003 0 0 0-3.828-8.052 1 1 0 1 1 .57-1.917A8.003 8.003 0 0 1 21 12Z"
  />
  <path
    d="M16.94 12.697 14 9.757a1 1 0 0 1 1.667-.739 3.993 3.993 0 0 1 1.272 3.679Z"
  />
</svg>
